<svg xmlns="http://www.w3.org/2000/svg" xmlns:xlink="http://www.w3.org/1999/xlink" version="1.1" width="276" height="306" style="" xml:space="preserve"><rect id="backgroundrect" width="411.2676056338028" height="439.4366197183099" x="0" y="12.676056861877441" fill="none" stroke="none" class="" style=""/>
















<g class="currentLayer" style=""><title>Layer 1</title><g id="svg_1" class="" transform="rotate(-102.2973861694336 130.65641784667966,156.00914001464844) ">
	<g id="svg_2">
		<path d="M138.20604193115236,301.9971554164886 C53.45704193115235,301.9971554164886 -15.492958068847656,233.04415541648865 -15.492958068847656,148.29815541648864 C-15.492958068847656,89.60115541648865 17.18204193115234,36.86115541648864 69.78704193115234,10.666155416488648 c2.369,-1.174 5.215,-0.7180000000000006 7.077,1.1440000000000001 c1.864,1.864 2.345,4.711 1.183,7.074 C68.44804193115235,38.38615541648865 63.58404193115234,59.35515541648865 63.58404193115234,81.18915541648865 c0,77.972 63.432,141.407 141.395,141.407 c22.08,0 43.247,-4.978 62.942,-14.777 c2.366,-1.177 5.213,-0.7210000000000006 7.074,1.141 c1.8730000000000002,1.867 2.342,4.714 1.177,7.073 C250.11704193115236,269.05415541648864 197.24504193115234,301.9971554164886 138.20604193115236,301.9971554164886 z" id="svg_3"/>
	</g>
</g><g id="svg_4" class="">
</g><g id="svg_5" class="">
</g><g id="svg_6" class="">
</g><g id="svg_7" class="">
</g><g id="svg_8" class="">
</g><g id="svg_9" class="">
</g><g id="svg_10" class="">
</g><g id="svg_11" class="">
</g><g id="svg_12" class="">
</g><g id="svg_13" class="">
</g><g id="svg_14" class="">
</g><g id="svg_15" class="">
</g><g id="svg_16" class="">
</g><g id="svg_17" class="">
</g><g id="svg_18" class="">
</g></g></svg>