<svg xmlns="http://www.w3.org/2000/svg" xmlns:xlink="http://www.w3.org/1999/xlink" version="1.1" width="262" height="309" style="enable-background:new 0 0 292.299 292.299;" xml:space="preserve"><rect id="backgroundrect" width="411.2676056338028" height="439.4366197183099" x="0" y="12.676056861877441" fill="none" stroke="none" class="" style=""/>
















<g class="currentLayer" style=""><title>Layer 1</title><g id="svg_1" class="" transform="rotate(-110.92900085449219 116.57191467285156,158.82603454589844) ">
	<g id="svg_2">
		<path d="M124.12153398895265,304.8140568618774 C39.37253398895264,304.8140568618774 -29.577466011047363,235.86105686187744 -29.577466011047363,151.11505686187743 C-29.577466011047363,92.41805686187745 3.097533988952634,39.67805686187744 55.70253398895264,13.483056861877442 c2.369,-1.174 5.215,-0.7180000000000005 7.077,1.1440000000000001 c1.864,1.864 2.345,4.711 1.183,7.074 C54.36353398895264,41.20305686187744 49.499533988952635,62.172056861877444 49.499533988952635,84.00605686187744 c0,77.972 63.432,141.407 141.395,141.407 c22.08,0 43.247,-4.978 62.942,-14.777 c2.366,-1.177 5.213,-0.7210000000000005 7.074,1.141 c1.8730000000000002,1.867 2.342,4.714 1.177,7.073 C236.03253398895265,271.87105686187743 183.16053398895264,304.8140568618774 124.12153398895265,304.8140568618774 z" id="svg_3"/>
	</g>
</g><g id="svg_4" class="">
</g><g id="svg_5" class="">
</g><g id="svg_6" class="">
</g><g id="svg_7" class="">
</g><g id="svg_8" class="">
</g><g id="svg_9" class="">
</g><g id="svg_10" class="">
</g><g id="svg_11" class="">
</g><g id="svg_12" class="">
</g><g id="svg_13" class="">
</g><g id="svg_14" class="">
</g><g id="svg_15" class="">
</g><g id="svg_16" class="">
</g><g id="svg_17" class="">
</g><g id="svg_18" class="">
</g></g></svg>