<svg xmlns="http://www.w3.org/2000/svg" xmlns:se="http://svg-edit.googlecode.com" xmlns:xlink="http://www.w3.org/1999/xlink" xmlns:dc="http://purl.org/dc/elements/1.1/" xmlns:cc="http://creativecommons.org/ns#" xmlns:rdf="http://www.w3.org/1999/02/22-rdf-syntax-ns#" xmlns:inkscape="http://www.inkscape.org/namespaces/inkscape" width="370" height="371" style="">                                    <title>my vector image</title>                                    <!-- Created with Vector Paint - http://www.vectorpaint.yaks.com/ https://chrome.google.com/webstore/detail/hnbpdiengicdefcjecjbnjnoifekhgdo -->                                    <rect id="backgroundrect" width="100%" height="100%" x="0" y="0" fill="#000000" stroke="none" class="" style="" opacity="0" fill-opacity="1"/>                                <g class="currentLayer" style=""><title>Layer 1</title><path fill="#6d6d6d" fill-opacity="1" stroke="none" stroke-width="2" stroke-dasharray="none" stroke-linejoin="round" stroke-linecap="butt" stroke-dashoffset="" fill-rule="nonzero" opacity="1" marker-start="" marker-mid="" marker-end="" d="M0,185.56389141082764 C0,83.04240444351953 82.71546584334823,1.2281977709943806e-20 184.8333249092102,1.2281977709943806e-20 C286.95118397507224,1.2281977709943806e-20 369.6666498184204,83.04240444351953 369.6666498184204,185.56389141082764 C369.6666498184204,288.0853783781358 286.95118397507224,371.1277828216553 184.8333249092102,371.1277828216553 C82.71546584334823,371.1277828216553 0,288.0853783781358 0,185.56389141082764 z" id="svg_1" class=""/><path fill="#ffffff" fill-opacity="1" stroke="none" stroke-width="2" stroke-dasharray="none" stroke-linejoin="round" stroke-linecap="butt" stroke-dashoffset="" fill-rule="nonzero" opacity="1" marker-start="" marker-mid="" marker-end="" d="M40.023423730356704,185.50000455499747 C40.023423730356704,105.08585501433757 104.90244603495286,39.95039388640308 185.00000443568888,39.95039388640308 C265.09756283642486,39.95039388640308 329.97658514102113,105.08585501433757 329.97658514102113,185.50000455499747 C329.97658514102113,265.91415409565735 265.09756283642486,331.04961522359184 185.00000443568888,331.04961522359184 C104.90244603495286,331.04961522359184 40.023423730356704,265.91415409565735 40.023423730356704,185.50000455499747 z" class="" id="svg_2"/></g></svg>