<?xml version="1.0" standalone="no"?>
<!DOCTYPE svg PUBLIC "-//W3C//DTD SVG 20010904//EN"
 "http://www.w3.org/TR/2001/REC-SVG-20010904/DTD/svg10.dtd">
<svg version="1.0" xmlns="http://www.w3.org/2000/svg"
 width="1550.000000pt" height="1600.000000pt" viewBox="0 0 1550.000000 1600.000000"
 preserveAspectRatio="xMidYMid meet">

<g transform="translate(0.000000,1600.000000) scale(0.100000,-0.100000)"
fill="#000000" stroke="none">
<path d="M0 8000 l0 -8000 7750 0 7750 0 0 8000 0 8000 -7750 0 -7750 0 0
-8000z m8200 5995 c320 -32 589 -82 875 -160 113 -31 356 -112 412 -136 23
-11 47 -19 53 -19 6 0 32 -9 58 -21 26 -11 56 -24 67 -29 187 -80 537 -259
595 -304 8 -6 25 -17 38 -23 12 -7 32 -19 45 -25 12 -7 26 -19 30 -25 4 -7 13
-13 18 -13 14 0 259 -172 259 -182 0 -4 7 -8 15 -8 8 0 15 -4 15 -8 0 -4 12
-15 28 -24 15 -10 39 -27 53 -40 15 -13 43 -36 64 -52 20 -16 49 -41 65 -55
15 -14 47 -42 71 -61 56 -45 324 -313 369 -369 19 -24 47 -56 61 -71 14 -16
39 -45 55 -65 16 -21 39 -49 52 -64 13 -14 30 -38 40 -53 9 -16 20 -28 24 -28
4 0 8 -7 8 -15 0 -8 4 -15 8 -15 10 0 182 -245 182 -259 0 -5 6 -14 13 -18 6
-4 18 -18 25 -30 6 -13 18 -33 25 -45 6 -13 17 -30 23 -38 45 -58 224 -408
304 -595 5 -11 18 -41 29 -67 12 -26 21 -52 21 -58 0 -7 7 -26 15 -43 19 -43
94 -256 99 -284 3 -12 16 -59 29 -105 25 -82 65 -251 86 -358 31 -160 42 -227
56 -350 36 -319 40 -520 12 -675 -9 -49 -73 -403 -142 -785 -69 -382 -139
-747 -156 -810 -37 -138 -36 -185 11 -370 18 -69 36 -145 41 -170 5 -25 14
-58 19 -75 5 -16 23 -111 40 -210 18 -99 45 -254 61 -345 70 -400 20 -762
-156 -1125 -254 -524 -718 -873 -1279 -962 -101 -16 -110 -20 -127 -47 -9 -16
-15 -35 -12 -43 12 -30 -44 -149 -115 -248 -16 -22 -34 -49 -39 -60 -15 -29
-41 -184 -53 -308 -11 -111 -32 -218 -52 -262 -6 -14 -34 -38 -63 -54 -58 -33
-94 -75 -128 -153 -31 -70 -144 -168 -193 -168 -51 0 -68 29 -76 129 -6 74
-26 282 -28 288 0 1 -18 22 -40 47 -22 26 -41 60 -44 79 -7 46 -18 207 -17
243 1 40 -21 61 -39 39 -7 -8 -16 -32 -21 -53 -26 -119 -39 -164 -68 -227 -44
-95 -48 -142 -22 -245 19 -76 20 -98 12 -217 l-8 -131 -64 -129 -63 -128 -6
-170 c-7 -178 -15 -219 -50 -230 -27 -9 -164 -175 -196 -237 -36 -71 -55 -72
-156 -5 -145 95 -167 107 -256 143 -47 19 -94 42 -104 51 -25 22 -57 113 -64
181 -18 171 -53 316 -79 326 -28 10 -37 -25 -45 -171 -5 -81 -13 -164 -19
-183 -6 -19 -11 -46 -11 -60 0 -51 -68 -170 -139 -244 -70 -72 -92 -110 -105
-181 -16 -82 -86 -152 -179 -177 -40 -10 -51 -9 -87 7 -23 10 -46 28 -52 39
-22 42 -124 139 -170 162 -37 19 -49 32 -61 66 -40 111 -47 152 -57 338 -13
233 -35 372 -59 368 -17 -3 -22 -37 -40 -303 -21 -307 -30 -367 -59 -415 -15
-24 -46 -57 -69 -72 -22 -15 -60 -57 -83 -93 -28 -43 -56 -73 -79 -85 -35 -17
-38 -17 -71 0 -19 9 -69 25 -110 35 l-75 18 -124 128 c-79 83 -142 139 -175
156 -44 24 -54 36 -73 83 -15 37 -22 77 -23 119 0 132 22 348 46 441 35 137
61 232 69 252 6 15 2 18 -22 18 -16 0 -38 -7 -50 -15 -32 -22 -101 -176 -123
-270 -23 -100 -117 -411 -136 -446 -8 -16 -25 -29 -43 -32 -39 -8 -100 -63
-119 -107 -18 -44 -27 -50 -82 -50 -70 0 -98 24 -153 132 -56 111 -106 174
-190 241 -36 28 -72 67 -86 93 l-24 45 19 52 c15 41 19 74 17 157 -1 58 -7
125 -12 150 -5 25 -15 71 -22 104 -9 45 -10 65 0 91 30 84 -58 330 -111 310
-9 -4 -32 -33 -52 -65 -57 -93 -111 -156 -171 -200 -30 -22 -70 -65 -90 -95
-39 -61 -74 -87 -153 -112 -39 -13 -55 -14 -64 -5 -11 11 -73 168 -109 275
-13 40 -19 87 -19 146 0 135 -17 177 -134 326 -32 40 -32 33 4 175 13 53 15
135 5 208 -6 42 -17 67 -54 115 -59 77 -85 87 -311 116 -254 32 -402 75 -605
176 -345 172 -605 439 -780 800 -176 363 -226 725 -156 1125 16 91 43 246 61
345 17 99 35 194 40 210 5 17 14 50 19 75 5 25 23 101 41 170 47 185 48 232
11 370 -17 63 -87 428 -156 810 -69 382 -133 736 -142 785 -28 155 -24 356 12
675 14 123 25 190 56 350 21 107 61 276 86 358 13 46 26 93 29 105 5 28 80
241 99 284 8 17 15 36 15 43 0 6 9 32 21 58 11 26 24 56 29 67 80 187 259 537
304 595 6 8 17 25 24 38 6 12 18 32 25 45 6 12 18 26 25 30 6 4 12 13 12 18 0
14 172 259 182 259 4 0 8 7 8 15 0 8 4 15 8 15 4 0 15 12 24 28 10 15 27 39
40 53 13 15 36 43 52 64 16 20 41 49 55 65 14 15 42 47 61 71 45 56 313 324
369 369 24 19 56 47 71 61 16 14 45 39 65 55 21 16 49 39 64 52 14 13 38 30
54 40 15 9 27 20 27 24 0 4 7 8 15 8 8 0 15 4 15 8 0 10 245 182 259 182 5 0
14 6 18 13 4 6 17 17 28 23 50 27 71 40 85 50 58 45 408 224 595 304 11 5 41
18 67 29 26 12 52 21 58 21 7 0 26 7 43 15 54 25 252 92 339 116 195 52 229
60 343 85 239 51 504 88 757 103 191 12 617 5 798 -14z"/>
<path d="M4415 7903 c-133 -151 -209 -266 -289 -433 -66 -139 -109 -267 -139
-414 -19 -97 -22 -141 -22 -341 1 -200 4 -243 23 -334 79 -363 249 -673 501
-913 462 -442 1121 -597 1736 -407 440 135 824 462 1030 877 92 185 159 392
127 392 -80 0 -429 60 -613 106 -200 49 -579 180 -677 233 -9 6 -73 38 -142
72 -373 184 -709 427 -1020 739 -149 148 -312 334 -370 420 -8 12 -23 31 -32
42 -10 12 -18 25 -18 30 0 25 -36 -1 -95 -69z"/>
<path d="M10950 7962 c0 -5 -8 -18 -17 -30 -10 -11 -25 -30 -33 -42 -58 -86
-221 -272 -370 -420 -311 -312 -647 -555 -1020 -739 -69 -34 -133 -66 -142
-72 -98 -53 -477 -184 -677 -233 -184 -46 -533 -106 -613 -106 -32 0 35 -207
127 -392 206 -415 590 -742 1030 -877 615 -190 1274 -35 1736 407 252 240 422
550 501 913 19 91 22 134 23 334 0 200 -3 244 -22 341 -52 255 -156 490 -309
700 -110 151 -214 255 -214 216z"/>
<path d="M7523 5220 c-39 -16 -71 -80 -98 -195 -41 -172 -64 -262 -97 -370
-16 -55 -38 -134 -48 -175 -9 -41 -28 -111 -41 -155 -30 -103 -33 -271 -6
-357 15 -50 25 -63 78 -104 111 -85 253 -124 334 -90 49 21 63 49 78 166 l13
105 13 -85 c24 -152 64 -200 165 -200 90 0 269 77 310 133 19 26 21 41 19 149
-2 87 -9 140 -24 191 -11 38 -26 97 -34 131 -24 114 -86 381 -107 461 -11 44
-25 102 -30 129 -13 68 -76 192 -114 225 -44 39 -99 48 -133 23 -34 -25 -49
-85 -50 -202 -1 -105 -20 -262 -31 -255 -4 2 -10 87 -13 188 -6 199 -16 243
-61 272 -31 20 -93 28 -123 15z"/>
</g>
</svg>
