<svg xmlns="http://www.w3.org/2000/svg" xmlns:se="http://svg-edit.googlecode.com" xmlns:xlink="http://www.w3.org/1999/xlink" xmlns:dc="http://purl.org/dc/elements/1.1/" xmlns:cc="http://creativecommons.org/ns#" xmlns:rdf="http://www.w3.org/1999/02/22-rdf-syntax-ns#" xmlns:inkscape="http://www.inkscape.org/namespaces/inkscape" width="370" height="371" style="">                                    <title>my vector image</title>                                    <!-- Created with Vector Paint - http://www.vectorpaint.yaks.com/ https://chrome.google.com/webstore/detail/hnbpdiengicdefcjecjbnjnoifekhgdo -->                                    <rect id="backgroundrect" width="100%" height="100%" x="0" y="0" fill="#FFFFFF" stroke="none" class="" style="" opacity="0"/>                                <g class="currentLayer" style=""><title>Layer 1</title><path fill="#ffffff" fill-opacity="1" stroke="none" stroke-width="2" stroke-dasharray="none" stroke-linejoin="round" stroke-linecap="butt" stroke-dashoffset="" fill-rule="nonzero" opacity="1" marker-start="" marker-mid="" marker-end="" d="M0,185.56389141082786 C0,83.04240444351976 82.71546584334823,2.2737367417268264e-13 184.8333249092102,2.2737367417268264e-13 C286.95118397507224,2.2737367417268264e-13 369.6666498184204,83.04240444351976 369.6666498184204,185.56389141082786 C369.6666498184204,288.085378378136 286.95118397507224,371.1277828216555 184.8333249092102,371.1277828216555 C82.71546584334823,371.1277828216555 0,288.085378378136 0,185.56389141082786 z" id="svg_1" class=""/><path fill="#cfcfcf" fill-opacity="1" stroke="none" stroke-width="2" stroke-dasharray="none" stroke-linejoin="round" stroke-linecap="butt" stroke-dashoffset="" fill-rule="nonzero" opacity="1" marker-start="" marker-mid="" marker-end="" d="M40.023423730356704,185.5000045549977 C40.023423730356704,105.0858550143378 104.90244603495286,39.950393886403305 185.00000443568888,39.950393886403305 C265.09756283642486,39.950393886403305 329.97658514102113,105.0858550143378 329.97658514102113,185.5000045549977 C329.97658514102113,265.9141540956576 265.09756283642486,331.04961522359207 185.00000443568888,331.04961522359207 C104.90244603495286,331.04961522359207 40.023423730356704,265.9141540956576 40.023423730356704,185.5000045549977 z" class="" id="svg_2"/></g></svg>